# This file uses centimeters as units for non-parametric coordinates.

mtllib Cabinet.mtl
g default
v 19.001253 4.109742 14.762278
v 19.001633 4.354060 14.736602
v 19.002756 4.587700 14.660696
v 19.004574 4.800450 14.537877
v 19.007008 4.983014 14.373514
v 19.009949 5.127412 14.174790
v 19.013268 5.227332 13.950390
v 19.016823 5.278409 13.710120
v 19.020460 5.278409 13.464484
v 19.024015 5.227332 13.224215
v 19.027336 5.127412 12.999814
v 19.030277 4.983014 12.801090
v 19.032709 4.800450 12.636726
v 19.034527 4.587700 12.513908
v 19.035650 4.354060 12.438003
v 19.036030 4.109742 12.412326
v 18.313314 4.109742 14.752097
v 18.313694 4.354060 14.726421
v 18.314817 4.587700 14.650515
v 18.316635 4.800450 14.527697
v 18.319067 4.983014 14.363334
v 18.322008 5.127412 14.164609
v 18.325329 5.227332 13.940209
v 18.328884 5.278409 13.699940
v 18.332520 5.278409 13.454303
v 18.336077 5.227332 13.214034
v 18.339396 5.127412 12.989634
v 18.342337 4.983014 12.790910
v 18.344770 4.800450 12.626546
v 18.346588 4.587700 12.503728
v 18.347712 4.354060 12.427822
v 18.348091 4.109742 12.402145
v 18.308966 4.109742 15.045841
v 18.309441 4.415139 15.013746
v 18.310844 4.707190 14.918863
v 18.313118 4.973128 14.765341
v 18.316158 5.201333 14.559887
v 18.319834 5.381829 14.311481
v 18.323986 5.506731 14.030981
v 18.328430 5.570576 13.730644
v 18.332975 5.570576 13.423598
v 18.337420 5.506731 13.123262
v 18.341570 5.381830 12.842761
v 18.345245 5.201333 12.594356
v 18.348288 4.973128 12.388902
v 18.350559 4.707190 12.235379
v 18.351963 4.415139 12.140496
v 18.352438 4.109742 12.108401
v 18.996906 4.109742 15.056022
v 18.997381 4.415139 15.023927
v 18.998785 4.707190 14.929044
v 19.001057 4.973128 14.775521
v 19.004097 5.201333 14.570067
v 19.007774 5.381829 14.321662
v 19.011925 5.506731 14.041162
v 19.016369 5.570576 13.740825
v 19.020914 5.570576 13.433779
v 19.025358 5.506731 13.133443
v 19.029510 5.381830 12.852942
v 19.033184 5.201333 12.604537
v 19.036226 4.973128 12.399082
v 19.038498 4.707190 12.245560
v 19.039902 4.415139 12.150677
v 19.040377 4.109742 12.118582
v 19.001253 0.000000 14.762278
v 18.313314 0.000000 14.752097
v 19.036030 0.000000 12.412326
v 18.348091 0.000000 12.402145
v 18.308966 0.000000 15.045841
v 18.352438 0.000000 12.108401
v 18.996906 0.000000 15.056022
v 19.040377 0.000000 12.118582
v 19.016823 4.109743 13.710120
v 19.020460 4.109743 13.464484
v 18.328884 4.109743 13.699940
v 18.332520 4.109743 13.454303
v 19.036030 3.287793 12.412326
v 18.348091 3.287793 12.402145
v 19.036030 2.301455 12.412326
v 18.348091 2.301455 12.402145
v 19.036030 1.380873 12.412326
v 18.348091 1.380873 12.402145
v 19.036030 3.189160 12.412326
v 18.348091 3.189160 12.402145
v 19.036030 2.209397 12.412326
v 18.348091 2.209397 12.402145
v 19.036030 1.273243 12.412326
v 18.348091 1.273243 12.402145
v 19.001253 3.287793 14.762278
v 19.001253 3.189160 14.762278
v 18.313314 3.287793 14.752097
v 18.313314 3.189160 14.752097
v 19.001253 2.301455 14.762278
v 19.001253 2.209397 14.762278
v 18.313314 2.301455 14.752097
v 18.313314 2.209397 14.752097
v 19.001253 1.380873 14.762278
v 19.001253 1.273243 14.762278
v 18.313314 1.380873 14.752097
v 18.313314 1.273243 14.752097
vt 0.306021 0.507689
vt 0.308914 0.480158
vt 0.342015 0.480158
vt 0.338398 0.514572
vt 0.047000 0.507689
vt 0.044106 0.480158
vt 0.308914 0.017045
vt 0.342015 0.017045
vt 0.297467 0.534017
vt 0.327706 0.547482
vt 0.014622 0.514572
vt 0.011005 0.480158
vt 0.283627 0.557991
vt 0.310406 0.577449
vt 0.055553 0.534017
vt 0.025314 0.547482
vt 0.011005 0.017045
vt 0.044106 0.017045
vt 0.044106 0.160522
vt 0.044106 0.172651
vt 0.044106 0.266014
vt 0.044106 0.276388
vt 0.044106 0.376420
vt 0.044106 0.387535
vt 0.265106 0.578564
vt 0.287255 0.603165
vt 0.069393 0.557991
vt 0.042614 0.577449
vt 0.308914 0.160522
vt 0.308914 0.172651
vt 0.308914 0.266014
vt 0.308914 0.276388
vt 0.308914 0.376420
vt 0.308914 0.387535
vt 0.242712 0.594835
vt 0.259263 0.623505
vt 0.087915 0.578564
vt 0.065766 0.603165
vt 0.217425 0.606095
vt 0.227654 0.637579
vt 0.110308 0.594835
vt 0.093758 0.623505
vt 0.190350 0.611851
vt 0.193810 0.644774
vt 0.135595 0.606095
vt 0.125366 0.637579
vt 0.162670 0.611851
vt 0.159210 0.644774
vt 0.352688 0.514572
vt 0.349071 0.480158
vt 0.382172 0.480158
vt 0.385065 0.507689
vt 0.349071 0.017045
vt 0.382172 0.017045
vt 0.646980 0.480158
vt 0.644087 0.507689
vt 0.363380 0.547482
vt 0.393619 0.534017
vt 0.680081 0.480158
vt 0.676464 0.514572
vt 0.380680 0.577449
vt 0.407459 0.557991
vt 0.665772 0.547482
vt 0.635533 0.534017
vt 0.646980 0.160522
vt 0.646980 0.017045
vt 0.680081 0.017045
vt 0.646980 0.387535
vt 0.646980 0.376420
vt 0.646980 0.276388
vt 0.646980 0.266014
vt 0.646980 0.172651
vt 0.403832 0.603165
vt 0.425980 0.578564
vt 0.648472 0.577449
vt 0.621693 0.557991
vt 0.382172 0.387535
vt 0.382172 0.376420
vt 0.382172 0.276388
vt 0.382172 0.266014
vt 0.382172 0.172651
vt 0.382172 0.160522
vt 0.431824 0.623505
vt 0.448374 0.594835
vt 0.625320 0.603165
vt 0.603171 0.578564
vt 0.463432 0.637579
vt 0.473661 0.606095
vt 0.597328 0.623505
vt 0.580778 0.594835
vt 0.497276 0.644774
vt 0.500736 0.611851
vt 0.565720 0.637579
vt 0.555491 0.606095
vt 0.531876 0.644774
vt 0.528416 0.611851
vt 0.203345 0.843700
vt 0.203302 0.871383
vt 0.071594 0.871178
vt 0.071637 0.843495
vt 0.203181 0.948913
vt 0.203137 0.976596
vt 0.071430 0.976391
vt 0.071473 0.948708
vt 0.230380 0.871425
vt 0.255669 0.871464
vt 0.255548 0.948995
vt 0.230259 0.948955
vt 0.278065 0.871499
vt 0.277944 0.949030
vt 0.296589 0.871528
vt 0.296468 0.949058
vt 0.310430 0.871550
vt 0.310309 0.949080
vt 0.712327 0.872638
vt 0.739405 0.872680
vt 0.739283 0.950211
vt 0.712205 0.950168
vt 0.687037 0.872598
vt 0.686915 0.950128
vt 0.664642 0.872563
vt 0.664519 0.950093
vt 0.646118 0.872533
vt 0.645996 0.950063
vt 0.938093 0.439296
vt 0.938107 0.419981
vt 0.985480 0.420016
vt 0.985465 0.439332
vt 0.938120 0.402875
vt 0.985492 0.402911
vt 0.938077 0.459978
vt 0.985450 0.460013
vt 0.938131 0.388728
vt 0.985503 0.388763
vt 0.938062 0.481122
vt 0.985434 0.481157
vt 0.938046 0.501803
vt 0.985419 0.501839
vt 0.938032 0.521119
vt 0.985404 0.521154
vt 0.938019 0.538224
vt 0.985391 0.538260
vt 0.938009 0.552372
vt 0.985381 0.552408
vt 0.938001 0.562944
vt 0.985373 0.562979
vt 0.884744 0.830922
vt 0.836372 0.830206
vt 0.838817 0.664970
vt 0.887189 0.665685
vt 0.336640 0.949247
vt 0.336761 0.871717
vt 0.595810 0.872123
vt 0.595689 0.949653
vt 0.832579 0.842419
vt 0.784207 0.843134
vt 0.781762 0.677898
vt 0.830134 0.677182
vt 0.727975 0.672158
vt 0.776347 0.672874
vt 0.773902 0.838110
vt 0.725530 0.837395
vt 0.721737 0.837395
vt 0.673365 0.838110
vt 0.670920 0.672874
vt 0.719292 0.672158
vt 0.618755 0.672158
vt 0.667127 0.672874
vt 0.664682 0.838110
vt 0.616310 0.837395
vt 0.612517 0.837395
vt 0.564145 0.838110
vt 0.561699 0.672874
vt 0.610072 0.672158
vt 0.509535 0.672158
vt 0.557907 0.672874
vt 0.555462 0.838110
vt 0.507089 0.837395
vt 0.622141 0.872291
vt 0.622020 0.949821
vt 0.937906 0.350303
vt 0.937889 0.329273
vt 0.985261 0.329309
vt 0.985279 0.350339
vt 0.938100 0.046271
vt 0.985473 0.046306
vt 0.937988 0.370415
vt 0.985360 0.370450
vt 0.938082 0.583055
vt 0.985454 0.583091
vt 0.938099 0.604085
vt 0.985471 0.604121
vt 0.985255 0.887124
vt 0.937883 0.887087
vt 0.821293 0.035239
vt 0.898814 0.035239
vt 0.898814 0.498352
vt 0.821293 0.498352
vt 0.787324 0.172255
vt 0.709802 0.172255
vt 0.709802 0.028778
vt 0.787324 0.028778
vt 0.871112 0.872887
vt 0.870990 0.950417
vt 0.789105 0.531664
vt 0.711584 0.531664
vt 0.711584 0.439041
vt 0.789105 0.439041
vt 0.784573 0.420303
vt 0.707052 0.420303
vt 0.707052 0.320270
vt 0.784573 0.320270
vt 0.789194 0.291034
vt 0.711673 0.291034
vt 0.711673 0.197671
vt 0.789194 0.197671
vn 0.013518 -0.406737 -0.913445
vn 0.014072 -0.309018 -0.950952
vn 0.014072 -0.309018 -0.950952
vn 0.013518 -0.406737 -0.913445
vn 0.011972 -0.587785 -0.808928
vn 0.011972 -0.587785 -0.808928
vn 0.009902 -0.743144 -0.669058
vn 0.009902 -0.743144 -0.669058
vn 0.007399 -0.866025 -0.499947
vn 0.007399 -0.866025 -0.499946
vn 0.004573 -0.951056 -0.308984
vn 0.004573 -0.951057 -0.308983
vn 0.003077 -0.978148 -0.207889
vn 0.003077 -0.978148 -0.207889
vn -0.004573 -0.951057 0.308982
vn -0.003076 -0.978148 0.207888
vn -0.003076 -0.978148 0.207888
vn -0.004573 -0.951057 0.308982
vn -0.007398 -0.866025 0.499945
vn -0.007398 -0.866025 0.499946
vn -0.009900 -0.743145 0.669057
vn -0.009900 -0.743145 0.669057
vn -0.011971 -0.587787 0.808927
vn -0.011971 -0.587787 0.808927
vn -0.013519 -0.406736 0.913446
vn -0.013519 -0.406736 0.913446
vn -0.014075 -0.309016 0.950953
vn -0.014075 -0.309016 0.950953
vn -0.999890 0.000006 -0.014802
vn -0.999891 0.000000 -0.014803
vn -0.999891 0.000000 -0.014803
vn -0.999891 0.000006 -0.014802
vn -0.999890 0.000003 -0.014802
vn -0.999891 0.000003 -0.014802
vn -0.999891 -0.000004 -0.014799
vn -0.999891 -0.000004 -0.014799
vn -0.999891 0.000001 -0.014797
vn -0.999891 0.000001 -0.014797
vn -0.999891 0.000004 -0.014798
vn -0.999891 0.000004 -0.014798
vn -0.999891 0.000001 -0.014797
vn -0.999891 0.000001 -0.014797
vn -0.999891 0.000001 -0.014798
vn -0.999891 0.000001 -0.014798
vn -0.999891 0.000001 -0.014799
vn -0.999891 0.000003 -0.014800
vn -0.999891 0.000003 -0.014796
vn -0.999891 0.000003 -0.014796
vn -0.999891 -0.000000 -0.014795
vn -0.999891 -0.000000 -0.014795
vn -0.999891 -0.000001 -0.014799
vn -0.999891 -0.000001 -0.014799
vn -0.999891 0.000000 -0.014799
vn -0.999891 0.000000 -0.014799
vn -0.999891 -0.000003 -0.014797
vn -0.999891 -0.000003 -0.014797
vn -0.999891 -0.000003 -0.014796
vn -0.999891 -0.000003 -0.014796
vn -0.999891 0.000000 -0.014796
vn -0.999891 0.000000 -0.014796
vn -0.014473 0.207912 0.978041
vn -0.014797 0.007270 0.999864
vn -0.014797 0.007270 0.999864
vn -0.014473 0.207912 0.978040
vn -0.013517 0.406736 0.913446
vn -0.013517 0.406736 0.913446
vn -0.011971 0.587784 0.808929
vn -0.011971 0.587784 0.808929
vn -0.009901 0.743144 0.669058
vn -0.009901 0.743144 0.669058
vn -0.007398 0.866024 0.499948
vn -0.007398 0.866024 0.499947
vn -0.004573 0.951056 0.308985
vn -0.004573 0.951056 0.308985
vn -0.001547 0.994522 0.104517
vn -0.001547 0.994522 0.104517
vn 0.001547 0.994522 -0.104516
vn 0.001547 0.994522 -0.104516
vn 0.004573 0.951057 -0.308982
vn 0.004573 0.951057 -0.308982
vn 0.007399 0.866025 -0.499946
vn 0.007399 0.866025 -0.499946
vn 0.009902 0.743144 -0.669058
vn 0.009902 0.743144 -0.669058
vn 0.011972 0.587786 -0.808928
vn 0.011972 0.587786 -0.808928
vn 0.013518 0.406738 -0.913445
vn 0.013518 0.406738 -0.913445
vn 0.014474 0.207912 -0.978040
vn 0.014474 0.207912 -0.978040
vn 0.014797 0.007270 -0.999864
vn 0.014797 0.007270 -0.999864
vn 0.999891 0.000003 0.014796
vn 0.999891 0.000000 0.014796
vn 0.999891 0.000000 0.014796
vn 0.999891 0.000003 0.014796
vn 0.999891 0.000003 0.014797
vn 0.999891 0.000003 0.014797
vn 0.999891 0.000003 0.014799
vn 0.999891 0.000003 0.014799
vn 0.999891 0.000001 0.014802
vn 0.999891 0.000001 0.014802
vn 0.999891 0.000004 0.014798
vn 0.999891 0.000004 0.014798
vn 0.999891 0.000003 0.014794
vn 0.999891 0.000003 0.014794
vn 0.999891 0.000001 0.014799
vn 0.999891 0.000001 0.014804
vn 0.999891 0.000002 0.014799
vn 0.999890 0.000001 0.014804
vn 0.999891 0.000003 0.014797
vn 0.999891 0.000003 0.014797
vn 0.999891 0.000004 0.014796
vn 0.999891 0.000004 0.014796
vn 0.999891 0.000003 0.014795
vn 0.999891 0.000003 0.014795
vn 0.999891 0.000000 0.014797
vn 0.999891 0.000000 0.014797
vn 0.999891 0.000003 0.014797
vn 0.999891 0.000003 0.014797
vn 0.999891 0.000003 0.014796
vn 0.999891 0.000003 0.014796
vn 0.999891 0.000000 0.014796
vn 0.999891 0.000000 0.014796
vn 0.014797 0.000000 -0.999891
vn 0.014797 0.000000 -0.999891
vn 0.014797 0.000000 -0.999891
vn 0.014797 0.000000 -0.999891
vn -0.014797 0.000000 0.999891
vn -0.014797 0.000000 0.999891
vn -0.014797 0.000000 0.999891
vn -0.014797 0.000000 0.999891
vn -0.999890 0.000000 -0.014803
vn -0.999890 0.000000 -0.014803
vn -0.999891 0.000000 -0.014796
vn -0.999891 0.000000 -0.014796
vn -0.999891 0.000000 -0.014797
vn -0.999891 0.000000 -0.014797
vn -0.999891 0.000000 -0.014797
vn -0.999891 0.000000 -0.014797
vn -0.999891 0.000000 -0.014797
vn -0.999891 0.000000 -0.014797
vn -0.014797 0.000000 0.999891
vn -0.014797 0.000000 0.999891
vn 0.014797 0.000000 -0.999891
vn 0.014797 0.000000 -0.999891
vn 0.999891 0.000000 0.014796
vn 0.999891 0.000000 0.014796
vn 0.999891 0.000000 0.014797
vn 0.999891 0.000000 0.014796
vn 0.999891 0.000000 0.014796
vn 0.999891 0.000000 0.014797
vn 0.999891 0.000000 0.014796
vn 0.999891 0.000000 0.014796
vn 0.999891 0.000000 0.014796
vn 0.999891 0.000000 0.014797
vn 0.999891 0.000000 0.014797
vn 0.999891 0.000000 0.014797
vn 0.999891 0.000000 0.014797
vn 0.999891 0.000000 0.014797
vn 0.000000 -1.000000 0.000000
vn 0.000000 -1.000000 0.000000
vn 0.000000 -1.000000 0.000000
vn 0.000000 -1.000000 0.000000
vn -0.999891 0.000000 -0.014797
vn -0.999891 0.000000 -0.014797
vn -0.999891 0.000000 -0.014797
vn -0.999891 0.000000 -0.014797
vn 0.000000 1.000000 0.000000
vn 0.000000 1.000000 0.000000
vn 0.000000 1.000000 0.000000
vn 0.000000 1.000000 0.000000
vn 0.999890 0.000000 0.014806
vn 0.999890 0.000000 0.014806
vn -0.014797 0.000000 0.999891
vn -0.014797 0.000000 0.999891
vn -0.014797 0.000000 0.999891
vn -0.014797 0.000000 0.999891
vn -0.999891 0.000000 -0.014798
vn -0.999891 0.000000 -0.014798
vn 0.014797 0.000000 -0.999891
vn 0.014797 0.000000 -0.999891
vn 0.014797 0.000000 -0.999891
vn 0.014797 0.000000 -0.999891
vn -0.014798 0.000000 0.999891
vn -0.014798 0.000000 0.999891
vn -0.014798 0.000000 0.999891
vn -0.014798 0.000000 0.999891
vn -0.014797 0.000000 0.999891
vn -0.014797 0.000000 0.999891
vn -0.014797 0.000000 0.999891
vn -0.014797 0.000000 0.999891
vn -0.014798 0.000000 0.999891
vn -0.014798 0.000000 0.999891
vn -0.014798 0.000000 0.999891
vn -0.014798 0.000000 0.999891
vn 0.999891 0.000000 0.014797
vn 0.999891 0.000000 0.014797
vn -0.999891 0.000000 -0.014797
vn -0.999891 0.000000 -0.014797
vn 0.000000 1.000000 0.000000
vn 0.000000 1.000000 0.000000
vn 0.000000 1.000000 0.000000
vn 0.000000 1.000000 0.000000
vn 0.000000 -1.000000 0.000000
vn 0.000000 -1.000000 0.000000
vn 0.000000 -1.000000 0.000000
vn 0.000000 -1.000000 0.000000
vn 0.999891 0.000000 0.014797
vn 0.999891 0.000000 0.014797
vn -0.999891 0.000000 -0.014797
vn -0.999891 0.000000 -0.014797
vn 0.000000 1.000000 0.000000
vn 0.000000 1.000000 0.000000
vn 0.000000 1.000000 0.000000
vn 0.000000 1.000000 0.000000
vn 0.000000 -1.000000 -0.000000
vn 0.000000 -1.000000 -0.000000
vn 0.000000 -1.000000 -0.000000
vn 0.000000 -1.000000 -0.000000
vn 0.999891 0.000000 0.014797
vn 0.999891 0.000000 0.014797
vn -0.999891 0.000000 -0.014797
vn -0.999891 0.000000 -0.014797
vn 0.000000 1.000000 0.000000
vn 0.000000 1.000000 0.000000
vn 0.000000 1.000000 0.000000
vn 0.000000 1.000000 0.000000
vn 0.000000 -1.000000 -0.000000
vn 0.000000 -1.000000 -0.000000
vn 0.000000 -1.000000 -0.000000
vn 0.000000 -1.000000 -0.000000
s 1
g pPipe1
usemtl lambert8SG
f 3/113/1 2/152/2 18/151/3 19/114/4
f 4/111/5 3/113/1 19/114/4 20/112/6
f 5/109/7 4/111/5 20/112/6 21/110/8
f 6/106/9 5/109/7 21/110/8 22/107/10
f 7/105/11 6/106/9 22/107/10 23/108/12
f 8/98/13 7/105/11 23/108/12 24/101/14
s 2
f 10/115/15 9/116/16 25/117/17 26/118/18
f 11/119/19 10/115/15 26/118/18 27/120/20
f 12/121/21 11/119/19 27/120/20 28/122/22
f 13/123/23 12/121/21 28/122/22 29/124/24
f 14/179/25 13/123/23 29/124/24 30/180/26
f 15/153/27 14/179/25 30/180/26 31/154/28
s 3
f 18/1/29 17/2/30 33/3/31 34/4/32
f 19/9/33 18/1/29 34/4/32 35/10/34
f 20/13/35 19/9/33 35/10/34 36/14/36
f 21/25/37 20/13/35 36/14/36 37/26/38
f 22/35/39 21/25/37 37/26/38 38/36/40
f 23/39/41 22/35/39 38/36/40 39/40/42
f 24/43/43 23/39/41 39/40/42 40/44/44
f 25/47/45 24/43/43 40/44/44 41/48/46
f 26/45/47 25/47/45 41/48/46 42/46/48
f 27/41/49 26/45/47 42/46/48 43/42/50
f 28/37/51 27/41/49 43/42/50 44/38/52
f 29/27/53 28/37/51 44/38/52 45/28/54
f 30/15/55 29/27/53 45/28/54 46/16/56
f 31/5/57 30/15/55 46/16/56 47/11/58
f 32/6/59 31/5/57 47/11/58 48/12/60
s 4
f 34/181/61 33/182/62 49/183/63 50/184/64
f 35/187/65 34/181/61 50/184/64 51/188/66
f 36/133/67 35/187/65 51/188/66 52/134/68
f 37/129/69 36/133/67 52/134/68 53/130/70
f 38/126/71 37/129/69 53/130/70 54/127/72
f 39/125/73 38/126/71 54/127/72 55/128/74
f 40/131/75 39/125/73 55/128/74 56/132/76
f 41/135/77 40/131/75 56/132/76 57/136/78
f 42/137/79 41/135/77 57/136/78 58/138/80
f 43/139/81 42/137/79 58/138/80 59/140/82
f 44/141/83 43/139/81 59/140/82 60/142/84
f 45/143/85 44/141/83 60/142/84 61/144/86
f 46/145/87 45/143/85 61/144/86 62/146/88
f 47/189/89 46/145/87 62/146/88 63/190/90
f 48/191/91 47/189/89 63/190/90 64/192/92
s 5
f 50/49/93 49/50/94 1/51/95 2/52/96
f 51/57/97 50/49/93 2/52/96 3/58/98
f 52/61/99 51/57/97 3/58/98 4/62/100
f 53/73/101 52/61/99 4/62/100 5/74/102
f 54/83/103 53/73/101 5/74/102 6/84/104
f 55/87/105 54/83/103 6/84/104 7/88/106
f 56/91/107 55/87/105 7/88/106 8/92/108
f 57/95/109 56/91/107 8/92/108 9/96/110
f 58/93/111 57/95/109 9/96/110 10/94/112
f 59/89/113 58/93/111 10/94/112 11/90/114
f 60/85/115 59/89/113 11/90/114 12/86/116
f 61/75/117 60/85/115 12/86/116 13/76/118
f 62/63/119 61/75/117 13/76/118 14/64/120
f 63/60/121 62/63/119 14/64/120 15/56/122
f 64/59/123 63/60/121 15/56/122 16/55/124
s off
f 17/195/125 1/196/126 65/197/127 66/198/128
f 87/199/129 88/200/130 68/201/131 67/202/132
s 3
f 33/3/31 17/2/30 66/7/133 69/8/134
f 70/17/135 68/18/136 88/19/137 82/20/138 86/21/139 80/22/140 84/23/141 78/24/142 32/6/59 48/12/60
s 4
f 49/183/63 33/182/62 69/185/143 71/186/144
f 72/193/145 70/194/146 48/191/91 64/192/92
s 5
f 1/51/95 49/50/94 71/53/147 65/54/148
f 87/65/149 67/66/150 72/67/151 64/59/123 16/55/124 77/68/152 83/69/153 79/70/154 85/71/155 81/72/156
s off
f 2/52/157 1/51/158 16/55/159 15/56/160
f 1/147/161 17/148/162 32/149/163 16/150/164
f 17/2/165 18/1/166 31/5/167 32/6/168
f 18/151/169 2/152/170 15/153/171 31/154/172
s 5
f 9/97/110 8/98/108 73/99/173 74/100/174
s off
f 8/98/175 24/101/176 75/104/177 73/99/178
s 3
f 24/101/43 25/102/45 76/103/179 75/104/180
s off
f 25/117/181 9/116/182 74/203/183 76/204/184
f 16/205/185 32/206/186 78/207/187 77/208/188
f 83/209/189 84/210/190 80/211/191 79/212/192
f 85/213/193 86/214/194 82/215/195 81/216/196
s 5
f 83/69/153 77/68/152 89/77/197 90/78/198
s 3
f 78/24/142 84/23/141 92/33/199 91/34/200
s off
f 77/155/201 78/156/202 91/157/203 89/158/204
f 84/159/205 83/160/206 90/161/207 92/162/208
s 5
f 85/71/155 79/70/154 93/79/209 94/80/210
s 3
f 80/22/140 86/21/139 96/31/211 95/32/212
s off
f 79/163/213 80/164/214 95/165/215 93/166/216
f 86/167/217 85/168/218 94/169/219 96/170/220
s 5
f 87/65/149 81/72/156 97/81/221 98/82/222
s 3
f 82/20/138 88/19/137 100/29/223 99/30/224
s off
f 81/171/225 82/172/226 99/173/227 97/174/228
f 88/175/229 87/176/230 98/177/231 100/178/232
