# This file uses centimeters as units for non-parametric coordinates.

mtllib Chair.mtl
g default
v -6.776760 1.292401 18.322498
v -6.776760 1.400045 18.322498
v -8.013843 1.400045 17.483213
v -8.013843 1.292401 17.483213
v -7.768106 1.292401 17.649929
v -7.075340 1.292401 18.119930
v -6.651834 1.292401 18.139862
v -6.948733 1.292401 17.938435
v -7.641500 1.292401 17.468437
v -7.888916 1.292401 17.300579
v -7.888916 1.400045 17.300579
v -7.832700 1.400045 17.218395
v -7.708990 1.400045 17.302322
v -7.765208 1.400045 17.384506
v -7.890135 1.400045 17.567142
v -7.708990 3.174210 17.302322
v -7.832700 3.174210 17.218395
v -7.577818 3.174210 17.110558
v -7.701527 3.174210 17.026627
v -7.890135 3.174210 17.567142
v -8.013843 3.174210 17.483213
v -6.526190 -0.000000 18.225822
v -6.651115 -0.000000 18.408457
v -6.898533 -0.000000 18.240601
v -6.773606 -0.000000 18.057964
v -8.039730 0.000000 17.198463
v -8.164656 0.000000 17.381096
v -7.742829 0.000000 17.399891
v -7.867757 0.000000 17.582523
v -7.765208 3.043427 17.384506
v -7.888916 3.043427 17.300579
v -8.013843 3.043427 17.483213
v -7.890135 3.043427 17.567142
v -7.577818 3.043427 17.110558
v -7.701527 3.043427 17.026628
v -6.152128 1.292401 17.409325
v -6.152128 1.400045 17.409325
v -7.389211 1.400045 16.570042
v -7.389211 1.292401 16.570042
v -7.143475 1.292401 16.736759
v -6.450708 1.292401 17.206758
v -6.277055 1.292401 17.591961
v -6.573955 1.292401 17.390533
v -7.266721 1.292401 16.920532
v -7.514137 1.292401 16.752678
v -7.514137 1.400045 16.752678
v -7.570354 1.400045 16.834862
v -7.446646 1.400045 16.918791
v -7.390429 1.400045 16.836605
v -7.265503 1.400045 16.653969
v -7.446646 3.174210 16.918791
v -7.570354 3.174210 16.834862
v -7.265503 3.174210 16.653969
v -7.389211 3.174210 16.570042
v -6.150741 -0.000000 17.676941
v -6.025815 -0.000000 17.494305
v -6.273231 -0.000000 17.326450
v -6.398157 -0.000000 17.509083
v -7.664764 0.000000 16.650286
v -7.539838 0.000000 16.467651
v -7.367865 0.000000 16.851715
v -7.242937 0.000000 16.669079
v -7.390429 3.043427 16.836605
v -7.514137 3.043427 16.752678
v -7.389211 3.043427 16.570042
v -7.265503 3.043427 16.653969
vt 0.635883 0.633627
vt 0.629487 0.633627
vt 0.629487 0.625423
vt 0.642193 0.625423
vt 0.678012 0.625423
vt 0.693451 0.625423
vt 0.693451 0.633627
vt 0.762390 0.877104
vt 0.771818 0.870708
vt 0.781814 0.885323
vt 0.772386 0.891719
vt 0.847141 0.526927
vt 0.853537 0.526927
vt 0.853537 0.662140
vt 0.847141 0.662140
vt 0.870807 0.662140
vt 0.856192 0.662140
vt 0.856192 0.526927
vt 0.885422 0.526927
vt 0.885422 0.662140
vt 0.795511 0.768841
vt 0.760714 0.768841
vt 0.760714 0.758873
vt 0.774632 0.758873
vt 0.795511 0.758873
vt 0.816389 0.758873
vt 0.830308 0.758873
vt 0.830308 0.768841
vt 0.629487 0.758873
vt 0.635883 0.758873
vt 0.635883 0.768841
vt 0.629487 0.768841
vt 0.828867 0.869022
vt 0.815035 0.869022
vt 0.757226 0.770526
vt 0.771145 0.770526
vt 0.687209 0.526927
vt 0.700002 0.526927
vt 0.615568 0.625423
vt 0.673290 0.526927
vt 0.841659 0.869022
vt 0.783937 0.770526
vt 0.739197 0.869023
vt 0.725365 0.869023
vt 0.668970 0.770526
vt 0.682889 0.770526
vt 0.732416 0.625424
vt 0.717065 0.625424
vt 0.773460 0.526927
vt 0.788811 0.526927
vt 0.703146 0.625424
vt 0.759541 0.526927
vt 0.754635 0.869023
vt 0.698240 0.770526
vt 0.774632 0.633627
vt 0.781029 0.633627
vt 0.781029 0.758873
vt 0.615568 0.633627
vt 0.615568 0.758873
vt 0.760714 0.633627
vt 0.699409 0.870708
vt 0.723211 0.905505
vt 0.713783 0.911901
vt 0.689981 0.877104
vt 0.658268 0.918860
vt 0.648840 0.912464
vt 0.663121 0.891586
vt 0.672549 0.897982
vt 0.830308 0.633627
vt 0.772741 0.633627
vt 0.772741 0.625424
vt 0.788179 0.625424
vt 0.823999 0.625424
vt 0.836705 0.625424
vt 0.836705 0.633627
vt 0.609304 0.633627
vt 0.580074 0.633627
vt 0.573811 0.633627
vt 0.559892 0.633627
vt 0.559892 0.625423
vt 0.573811 0.625423
vt 0.874430 0.679135
vt 0.958745 0.678435
vt 0.959206 0.780972
vt 0.942343 0.781112
vt 0.942393 0.792505
vt 0.934805 0.792568
vt 0.934754 0.781175
vt 0.899341 0.781469
vt 0.899393 0.792862
vt 0.891804 0.792925
vt 0.891753 0.781532
vt 0.874890 0.781672
vt 0.758822 0.625424
vt 0.703146 0.633627
vt 0.794603 0.891719
vt 0.784606 0.877104
vt 0.794034 0.870708
vt 0.804031 0.885322
vt 0.891818 0.526927
vt 0.891818 0.662140
vt 0.594689 0.768841
vt 0.580074 0.768841
vt 0.609304 0.768841
vt 0.836705 0.758873
vt 0.836705 0.768841
vt 0.639668 0.869022
vt 0.582021 0.770526
vt 0.595940 0.770526
vt 0.653674 0.869022
vt 0.608733 0.770526
vt 0.666380 0.869022
vt 0.617540 0.526927
vt 0.631458 0.526927
vt 0.644251 0.526927
vt 0.586604 0.625423
vt 0.616221 0.969204
vt 0.559892 0.870707
vt 0.573811 0.870707
vt 0.630227 0.969204
vt 0.589162 0.870707
vt 0.645578 0.969204
vt 0.815238 0.526927
vt 0.829157 0.526927
vt 0.844508 0.526927
vt 0.850646 0.770526
vt 0.850646 0.895771
vt 0.844250 0.895771
vt 0.844250 0.770526
vt 0.573811 0.758873
vt 0.559892 0.758873
vt 0.816389 0.633627
vt 0.759415 0.905505
vt 0.749987 0.911901
vt 0.726185 0.877104
vt 0.735613 0.870708
vt 0.801907 0.768841
vt 0.822786 0.758873
vt 0.801907 0.758873
vt 0.767110 0.758873
vt 0.767110 0.768841
vt 0.686830 0.877104
vt 0.677402 0.870708
vn -0.561429 -0.000003 0.827525
vn -0.561430 -0.000002 0.827524
vn -0.561426 0.000246 0.827527
vn -0.561426 0.000296 0.827527
vn -0.561427 0.000085 0.827527
vn -0.561427 0.000072 0.827527
vn -0.561426 -0.000006 0.827527
vn 0.000000 1.000000 0.000001
vn 0.000000 1.000000 0.000001
vn 0.000000 1.000000 0.000001
vn 0.000000 1.000000 0.000001
vn -0.561417 0.000000 0.827533
vn -0.561417 0.000000 0.827533
vn -0.561417 0.000000 0.827533
vn -0.561417 0.000000 0.827533
vn 0.825380 -0.000000 0.564578
vn 0.825380 -0.000000 0.564578
vn 0.825380 -0.000000 0.564578
vn 0.825380 -0.000000 0.564578
vn 0.825380 -0.000000 0.564578
vn 0.825379 -0.000002 0.564578
vn 0.825379 -0.000002 0.564578
vn 0.825380 -0.000000 0.564577
vn 0.825380 -0.000001 0.564578
vn 0.825379 -0.000002 0.564578
vn 0.825381 -0.000001 0.564576
vn 0.825382 -0.000000 0.564575
vn 0.825379 -0.000002 0.564578
vn -0.561432 0.000000 0.827523
vn -0.561432 0.000000 0.827523
vn -0.561432 0.000000 0.827523
vn -0.561432 0.000000 0.827523
vn 0.569168 0.722126 0.393169
vn 0.569168 0.722126 0.393169
vn 0.569168 0.722126 0.393169
vn 0.569168 0.722126 0.393169
vn -0.561426 0.000463 0.827527
vn -0.561426 0.000463 0.827527
vn -0.571180 -0.721877 -0.390700
vn -0.571180 -0.721877 -0.390700
vn -0.571180 -0.721877 -0.390700
vn -0.571180 -0.721877 -0.390700
vn 0.561429 -0.000455 -0.827525
vn 0.561429 -0.000455 -0.827525
vn 0.561429 -0.000455 -0.827525
vn 0.561429 -0.000455 -0.827525
vn -0.576237 0.713796 -0.398053
vn -0.576237 0.713796 -0.398053
vn -0.576237 0.713796 -0.398053
vn -0.576237 0.713796 -0.398053
vn 0.561426 -0.000126 -0.827527
vn 0.561426 -0.000126 -0.827527
vn 0.561426 -0.000126 -0.827527
vn 0.561426 -0.000126 -0.827527
vn 0.577820 -0.714077 0.395246
vn 0.577820 -0.714077 0.395246
vn 0.577820 -0.714077 0.395246
vn 0.577820 -0.714077 0.395246
vn -0.561427 0.000127 0.827527
vn -0.561427 0.000127 0.827527
vn 0.561421 0.000000 -0.827530
vn 0.561421 0.000000 -0.827530
vn 0.561421 0.000000 -0.827530
vn 0.561421 0.000000 -0.827530
vn -0.825378 0.000000 -0.564581
vn -0.825378 0.000000 -0.564581
vn -0.825378 -0.000002 -0.564581
vn -0.825378 -0.000004 -0.564581
vn 0.825381 0.000000 0.564577
vn 0.825381 0.000000 0.564577
vn 0.000000 1.000000 0.000000
vn 0.000000 1.000000 0.000000
vn 0.000000 1.000000 0.000000
vn 0.000000 1.000000 0.000000
vn 0.000000 -1.000000 0.000000
vn 0.000000 -1.000000 0.000000
vn 0.000000 -1.000000 0.000000
vn 0.000000 -1.000000 0.000000
vn 0.561424 -0.000006 -0.827528
vn 0.561426 -0.000011 -0.827527
vn 0.561426 0.000073 -0.827527
vn 0.561426 0.000087 -0.827527
vn 0.561425 0.000290 -0.827528
vn 0.561425 0.000241 -0.827528
vn 0.561423 -0.000004 -0.827529
vn -0.825379 0.000000 -0.564579
vn -0.825379 0.000000 -0.564579
vn -0.825380 0.000000 -0.564578
vn -0.825380 0.000000 -0.564577
vn -0.825379 0.000001 -0.564580
vn -0.825379 0.000001 -0.564580
vn -0.825379 0.000001 -0.564580
vn -0.825379 0.000001 -0.564580
vn 0.000000 1.000000 0.000000
vn 0.000000 1.000000 0.000000
vn 0.000000 1.000000 0.000000
vn 0.000000 1.000000 0.000000
vn 0.000000 1.000000 0.000000
vn 0.000000 1.000000 0.000000
vn 0.000000 1.000000 0.000000
vn 0.000000 1.000000 0.000000
vn 0.000000 1.000000 0.000000
vn 0.000000 1.000000 0.000000
vn 0.000000 1.000000 0.000000
vn 0.000000 1.000000 0.000000
vn 0.825379 0.000000 0.564579
vn 0.825379 0.000000 0.564579
vn 0.825379 0.000000 0.564579
vn 0.825379 0.000000 0.564579
vn 0.825379 0.000000 0.564579
vn 0.825379 0.000000 0.564579
vn 0.000000 1.000000 0.000000
vn 0.000000 1.000000 0.000000
vn 0.000000 1.000000 0.000000
vn 0.000000 1.000000 0.000000
vn 0.561425 0.000000 -0.827528
vn 0.561425 0.000000 -0.827528
vn 0.561425 0.000000 -0.827528
vn 0.561425 0.000000 -0.827528
vn -0.825379 -0.000000 -0.564578
vn -0.825379 -0.000000 -0.564578
vn -0.825379 -0.000000 -0.564578
vn 0.561422 0.000000 -0.827530
vn 0.561424 0.000000 -0.827528
vn 0.561424 0.000000 -0.827528
vn 0.561422 0.000000 -0.827530
vn 0.572741 0.722139 0.387921
vn 0.572741 0.722139 0.387921
vn 0.572741 0.722139 0.387921
vn 0.572741 0.722139 0.387921
vn 0.561424 0.000456 -0.827528
vn 0.561424 0.000456 -0.827528
vn -0.571179 -0.721877 -0.390702
vn -0.571179 -0.721877 -0.390702
vn -0.571179 -0.721877 -0.390702
vn -0.571179 -0.721877 -0.390702
vn -0.561426 -0.000458 0.827527
vn -0.561425 -0.000458 0.827527
vn -0.561426 -0.000458 0.827527
vn -0.561426 -0.000458 0.827527
vn -0.579856 0.713808 -0.392741
vn -0.579856 0.713808 -0.392741
vn -0.579856 0.713808 -0.392741
vn -0.579856 0.713808 -0.392741
vn -0.561427 -0.000127 0.827526
vn -0.561427 -0.000127 0.827527
vn -0.561427 -0.000127 0.827527
vn -0.561427 -0.000127 0.827527
vn 0.577821 -0.714076 0.395244
vn 0.577821 -0.714076 0.395244
vn 0.577821 -0.714076 0.395244
vn 0.577821 -0.714076 0.395244
vn 0.561426 0.000132 -0.827527
vn 0.561425 0.000132 -0.827527
vn -0.561418 0.000000 0.827532
vn -0.561418 0.000000 0.827532
vn -0.561418 0.000000 0.827532
vn -0.561418 0.000000 0.827532
vn -0.825380 -0.000004 -0.564578
vn -0.825380 -0.000002 -0.564578
vn 0.825383 0.000000 0.564574
vn 0.825383 0.000000 0.564574
vn 0.000000 1.000000 -0.000001
vn 0.000000 1.000000 -0.000001
vn 0.000000 1.000000 -0.000001
vn 0.000000 1.000000 -0.000001
vn -0.825379 -0.000008 -0.564580
vn -0.825379 -0.000008 -0.564580
vn -0.825379 -0.000008 -0.564580
vn -0.825379 -0.000008 -0.564580
vn 0.000000 -1.000000 0.000000
vn 0.000000 -1.000000 0.000000
vn 0.000000 -1.000000 0.000000
vn 0.000000 -1.000000 0.000000
s 1
g polySurface10 pCube34
usemtl lambert11SG
f 15/1/1 3/2/2 4/3/3 5/4/4 6/5/5 1/6/6 2/7/7
s off
f 17/8/8 16/9/9 18/10/10 19/11/11
f 12/12/12 13/13/13 16/14/14 17/15/15
f 18/16/16 16/17/17 13/18/18 48/19/19 51/20/20
s 2
f 18/21/21 20/22/22 33/23/23 30/24/24 34/25/25 63/26/26 66/27/27 53/28/28
s 1
f 32/29/29 33/30/30 20/31/31 21/32/32
s off
f 9/33/33 5/34/34 23/35/35 22/36/36
s 1
f 5/4/4 4/3/3 24/37/37 23/38/38
s off
f 4/3/39 10/39/40 25/40/41 24/37/42
f 10/41/43 9/33/44 22/36/45 25/42/46
f 6/43/47 8/44/48 26/45/49 27/46/50
f 8/47/51 7/48/52 28/49/53 26/50/54
f 7/48/55 1/51/56 29/52/57 28/49/58
s 1
f 1/53/6 6/43/5 27/46/59 29/54/60
s off
f 14/55/61 11/56/62 31/57/63 30/24/64
s 3
f 11/58/65 3/2/66 32/29/67 31/59/68
s 1
f 3/2/2 15/1/1 33/30/30 32/29/29
s 2
f 15/60/69 14/55/70 30/24/24 33/23/23
s off
f 20/61/71 18/62/72 19/63/73 21/64/74
f 30/65/75 31/66/76 35/67/77 34/68/78
s 4
f 50/69/79 37/70/80 36/71/81 41/72/82 40/73/83 39/74/84 38/75/85
s 3
f 12/76/86 47/77/87 46/78/88 38/79/89 39/80/90 45/81/91 10/39/92 4/3/93 3/2/66 11/58/65
s off
f 2/82/94 37/83/95 50/84/96 49/85/97 46/86/98 47/87/99 48/88/100 13/89/101 12/90/102 11/91/103 14/92/104 15/93/105
f 7/48/106 42/94/107 36/71/108 37/70/109 2/95/110 1/51/111
f 52/96/112 19/97/113 18/98/114 51/99/115
f 47/100/116 52/101/117 51/20/118 48/19/119
s 3
f 19/102/120 52/103/121 47/77/87 12/76/86 17/104/122
s 4
f 65/105/123 54/106/124 53/28/125 66/27/126
s off
f 44/107/127 55/108/128 56/109/129 40/110/130
s 4
f 40/110/83 56/109/131 57/111/132 39/112/84
s off
f 39/80/133 57/113/134 58/114/135 45/81/136
f 45/81/137 58/114/138 55/115/139 44/116/140
f 41/117/141 60/118/142 59/119/143 43/120/144
f 43/120/145 59/119/146 61/121/147 42/122/148
f 42/94/149 61/123/150 62/124/151 36/71/152
s 4
f 36/71/81 62/124/153 60/125/154 41/72/82
s off
f 49/126/155 63/127/156 64/128/157 46/129/158
s 3
f 46/78/88 64/130/159 65/131/160 38/79/89
s 4
f 38/75/85 65/105/123 66/27/126 50/69/79
s 2
f 50/69/161 66/27/27 63/26/26 49/132/162
s off
f 53/133/163 54/134/164 19/135/165 18/136/166
s 3
f 19/137/167 54/106/168 65/105/160 64/138/159 35/139/169 31/57/68 32/140/67 21/141/170
s off
f 63/142/171 34/68/172 35/67/173 64/143/174
