# This file uses centimeters as units for non-parametric coordinates.

mtllib Desk.mtl
g default
v 15.695641 1.720933 10.875833
v 15.688836 1.720933 15.795979
v 15.695641 1.859174 10.875833
v 15.688836 1.859174 15.795979
v 17.980164 1.859174 10.878992
v 17.973360 1.859174 15.799137
v 17.980164 1.720933 10.878992
v 17.973360 1.720933 15.799137
v 17.779764 1.720933 11.139914
v 17.773682 1.720933 15.537664
v 15.889237 1.720933 15.535057
v 15.895319 1.720933 11.137307
v 17.779764 0.000000 11.139914
v 17.773682 0.000000 15.537664
v 15.889237 0.000000 15.535057
v 15.895319 0.000000 11.137307
vt 0.031417 0.752405
vt 0.030515 0.099999
vt 0.048846 0.099974
vt 0.049748 0.752380
vt 0.352673 0.751961
vt 0.351771 0.099555
vt 0.370102 0.099530
vt 0.371004 0.751936
vt 0.868577 0.298153
vt 0.868577 0.035744
vt 0.971263 0.035744
vt 0.971263 0.298153
vt 0.868577 0.673005
vt 0.868577 0.410596
vt 0.971263 0.410596
vt 0.971263 0.673005
vt 0.824787 0.099554
vt 0.823771 0.834553
vt 0.793942 0.795492
vt 0.794850 0.138532
vt 0.482496 0.834081
vt 0.512433 0.795103
vt 0.483512 0.099082
vt 0.513341 0.138142
vt 0.048821 0.081643
vt 0.351746 0.081225
vt 0.352699 0.770292
vt 0.049773 0.770711
vt 0.868577 0.785448
vt 0.971263 0.785448
vn -0.999999 0.000000 -0.001383
vn -0.999999 0.000000 -0.001383
vn -0.999999 0.000000 -0.001383
vn -0.999999 0.000000 -0.001383
vn 0.000000 1.000000 -0.000000
vn 0.000000 1.000000 -0.000000
vn 0.000000 1.000000 -0.000000
vn 0.000000 1.000000 -0.000000
vn 0.999999 0.000000 0.001383
vn 0.999999 0.000000 0.001383
vn 0.999999 0.000000 0.001383
vn 0.999999 0.000000 0.001383
vn -0.001382 0.000000 0.999999
vn -0.001382 0.000000 0.999999
vn -0.001382 0.000000 0.999999
vn -0.001382 0.000000 0.999999
vn 0.001383 0.000000 -0.999999
vn 0.001383 0.000000 -0.999999
vn 0.001383 0.000000 -0.999999
vn 0.001383 0.000000 -0.999999
vn 0.000000 -1.000000 -0.000000
vn 0.000000 -1.000000 -0.000000
vn 0.000000 -1.000000 -0.000000
vn 0.000000 -1.000000 -0.000000
vn 0.000000 -1.000000 -0.000000
vn 0.000000 -1.000000 -0.000000
vn 0.000000 -1.000000 -0.000000
vn 0.000000 -1.000000 -0.000000
vn 0.999999 0.000000 0.001383
vn 0.999999 0.000000 0.001383
vn 0.999999 0.000000 0.001383
vn 0.999999 0.000000 0.001383
vn -0.001384 0.000000 0.999999
vn -0.001384 0.000000 0.999999
vn -0.001384 0.000000 0.999999
vn -0.001384 0.000000 0.999999
vn -0.999999 0.000000 -0.001383
vn -0.999999 0.000000 -0.001383
vn -0.999999 0.000000 -0.001383
vn -0.999999 0.000000 -0.001383
vn 0.001383 0.000000 -0.999999
vn 0.001383 0.000000 -0.999999
vn 0.001383 0.000000 -0.999999
vn 0.001383 0.000000 -0.999999
s off
g pCube15
usemtl lambert6SG
f 1/1/1 2/2/2 4/3/3 3/4/4
f 3/4/5 4/3/6 6/6/7 5/5/8
f 5/5/9 6/6/10 8/7/11 7/8/12
f 2/25/13 8/26/14 6/6/15 4/3/16
f 7/27/17 1/28/18 3/4/19 5/5/20
s 1
f 7/17/21 8/18/22 10/19/23 9/20/24
f 8/18/22 2/21/25 11/22/26 10/19/23
f 2/21/25 1/23/27 12/24/28 11/22/26
f 1/23/27 7/17/21 9/20/24 12/24/28
s off
f 9/9/29 10/10/30 14/11/31 13/12/32
f 10/29/33 11/13/34 15/16/35 14/30/36
f 11/13/37 12/14/38 16/15/39 15/16/40
f 12/14/41 9/9/42 13/12/43 16/15/44
