# This file uses centimeters as units for non-parametric coordinates.

mtllib Chair2.mtl
g default
v 14.028437 1.218322 14.250703
v 14.127357 1.218322 14.250703
v 14.028437 1.218322 14.349623
v 14.226276 1.218322 14.250703
v 14.226276 1.218322 14.349623
v 14.127357 1.218322 14.448543
v 14.028437 1.218322 14.448543
v 14.226276 1.218322 14.448543
v 14.819794 1.218322 14.250703
v 14.918715 1.218322 14.250703
v 14.819794 1.218322 14.349623
v 15.017633 1.218322 14.250703
v 15.017633 1.218322 14.349623
v 14.918715 1.218322 14.448543
v 14.819794 1.218322 14.448543
v 15.017633 1.218322 14.448543
v 14.028437 1.218322 15.042061
v 14.127357 1.218322 15.042061
v 14.028437 1.218322 15.140981
v 14.226276 1.218322 15.042061
v 14.226276 1.218322 15.140981
v 14.127357 1.218322 15.239901
v 14.028437 1.218322 15.239901
v 14.226276 1.218322 15.239901
v 14.819794 1.218322 15.042061
v 14.918715 1.218322 15.042061
v 14.819794 1.218322 15.140981
v 15.017633 1.218322 15.042061
v 15.017633 1.218322 15.140981
v 14.918715 1.218322 15.239901
v 14.819794 1.218322 15.239901
v 15.017633 1.218322 15.239901
v 13.993992 0.000000 14.216259
v 14.063469 0.000000 14.216259
v 13.993992 0.000000 14.285735
v 14.063469 0.000000 14.285735
v 14.981297 0.000000 14.214954
v 15.053383 0.000000 14.214954
v 14.981297 0.000000 14.287040
v 15.053383 0.000000 14.287040
v 13.994268 0.000000 15.205145
v 14.063191 0.000000 15.205145
v 13.994268 0.000000 15.274069
v 14.063191 0.000000 15.274069
v 14.984845 0.000000 15.207111
v 15.049835 0.000000 15.207111
v 14.984845 0.000000 15.272102
v 15.049835 0.000000 15.272102
v 13.913402 1.205948 15.097274
v 15.132668 1.205948 15.097274
v 14.523035 1.205948 14.041358
v 14.523035 1.205948 15.449245
v 15.132668 1.205948 14.393330
v 13.913402 1.205948 14.393330
v 13.819092 1.205948 14.745302
v 14.171062 1.205948 15.354935
v 14.875008 1.205948 15.354935
v 15.226979 1.205948 14.745302
v 14.875008 1.205948 14.135668
v 14.171062 1.205948 14.135669
v 13.843078 1.205948 14.563107
v 13.843078 1.205948 14.927496
v 14.025272 1.205948 15.243065
v 14.340841 1.205948 15.425259
v 14.705229 1.205948 15.425259
v 15.020799 1.205948 15.243065
v 15.202992 1.205948 14.927496
v 15.202993 1.205948 14.563107
v 15.020799 1.205948 14.247538
v 14.705229 1.205948 14.065344
v 14.340841 1.205948 14.065344
v 14.025271 1.205948 14.247539
v 14.218219 1.332885 14.745302
v 14.218218 1.332885 14.569316
v 14.065810 1.332885 14.481323
v 14.042233 1.332885 14.657309
v 13.913402 1.332885 14.393330
v 13.843078 1.332885 14.563107
v 13.819092 1.332885 14.745302
v 14.018655 1.332885 14.833295
v 14.218219 1.332885 14.921288
v 13.843078 1.332885 14.927496
v 14.030443 1.332885 15.029699
v 13.913402 1.332885 15.097274
v 14.025272 1.332885 15.243066
v 14.171062 1.332885 15.354935
v 14.194641 1.332885 15.138111
v 14.340841 1.332885 15.425259
v 14.358838 1.332885 15.205686
v 14.523035 1.332885 15.449245
v 14.523035 1.332885 15.273260
v 14.523035 1.332885 15.097274
v 14.370626 1.332885 15.009281
v 14.523035 1.332885 14.921288
v 14.370626 1.332885 14.833295
v 14.523035 1.332885 14.745302
v 14.370626 1.332885 14.657309
v 14.675444 1.332885 15.009281
v 14.687232 1.332885 15.205686
v 14.705229 1.332885 15.425259
v 14.875008 1.332885 15.354935
v 14.851429 1.332885 15.138111
v 14.827852 1.332885 14.921288
v 15.020799 1.332885 15.243066
v 15.015627 1.332885 15.029699
v 15.132668 1.332885 15.097274
v 15.202992 1.332885 14.927496
v 15.226979 1.332885 14.745302
v 15.027416 1.332885 14.833295
v 15.202993 1.332885 14.563107
v 15.003838 1.332885 14.657309
v 15.132668 1.332885 14.393330
v 14.980260 1.332885 14.481323
v 14.827852 1.332885 14.569316
v 14.827852 1.332885 14.745302
v 14.675444 1.332885 14.657309
v 14.675444 1.332885 14.833295
v 14.675444 1.332885 14.481323
v 14.839641 1.332885 14.372911
v 15.020799 1.332885 14.247538
v 14.875008 1.332885 14.135668
v 14.699021 1.332885 14.264499
v 14.523035 1.332885 14.393330
v 14.705229 1.332885 14.065344
v 14.523035 1.332885 14.176506
v 14.523035 1.332885 14.041358
v 14.340841 1.332885 14.065344
v 14.171062 1.332885 14.135669
v 14.347050 1.332885 14.264500
v 14.025271 1.332885 14.247539
v 14.206429 1.332885 14.372911
v 14.370626 1.332885 14.481323
v 14.523035 1.332885 14.569316
vt 0.861140 0.188626
vt 0.825773 0.034620
vt 0.838186 0.031397
vt 0.850599 0.028175
vt 0.869859 0.186362
vt 0.887737 0.187504
vt 0.878865 0.186468
vt 0.876246 0.028475
vt 0.888877 0.029950
vt 0.901508 0.031425
vt 0.679597 0.187405
vt 0.674962 0.029454
vt 0.687765 0.028702
vt 0.700567 0.027950
vt 0.688927 0.186857
vt 0.707322 0.190121
vt 0.698341 0.187270
vt 0.726405 0.029082
vt 0.738731 0.032994
vt 0.751056 0.036907
vt 0.906235 0.402199
vt 0.927379 0.244248
vt 0.939752 0.247621
vt 0.952125 0.250993
vt 0.914856 0.404549
vt 0.897299 0.402199
vt 0.888488 0.403128
vt 0.876437 0.246914
vt 0.889084 0.245581
vt 0.901730 0.244248
vt 0.538979 0.299347
vt 0.534804 0.141395
vt 0.547443 0.142769
vt 0.560082 0.144142
vt 0.547283 0.300249
vt 0.530554 0.299347
vt 0.522431 0.301589
vt 0.484431 0.148220
vt 0.496793 0.144808
vt 0.509155 0.141395
vt 0.205180 0.408972
vt 0.237799 0.408987
vt 0.237787 0.433374
vt 0.205169 0.433359
vt 0.272803 0.409003
vt 0.272791 0.433390
vt 0.177170 0.408959
vt 0.177159 0.433347
vt 0.307806 0.409018
vt 0.307795 0.433406
vt 0.155677 0.408950
vt 0.155666 0.433337
vt 0.340425 0.409033
vt 0.340414 0.433421
vt 0.368435 0.409046
vt 0.368424 0.433434
vt 0.389928 0.409056
vt 0.389917 0.433443
vt 0.574675 0.409140
vt 0.607293 0.409155
vt 0.607282 0.433542
vt 0.574663 0.433527
vt 0.642296 0.409170
vt 0.642285 0.433558
vt 0.546665 0.409127
vt 0.546653 0.433514
vt 0.677300 0.409186
vt 0.677289 0.433574
vt 0.525172 0.409117
vt 0.525161 0.433504
vt 0.709918 0.409201
vt 0.709907 0.433588
vt 0.737928 0.409214
vt 0.737917 0.433601
vt 0.759421 0.409223
vt 0.759410 0.433611
vt 0.147702 0.194921
vt 0.147702 0.233107
vt 0.114632 0.252200
vt 0.109516 0.214014
vt 0.180772 0.214014
vt 0.180772 0.175828
vt 0.180772 0.252200
vt 0.145144 0.275724
vt 0.081561 0.271294
vt 0.066302 0.234454
vt 0.104400 0.175828
vt 0.147702 0.156735
vt 0.213843 0.233107
vt 0.180772 0.137641
vt 0.213843 0.156735
vt 0.213843 0.194921
vt 0.213843 0.271294
vt 0.175656 0.299248
vt 0.105835 0.302928
vt 0.061097 0.194921
vt 0.142586 0.109687
vt 0.106958 0.133211
vt 0.246913 0.214014
vt 0.246913 0.252200
vt 0.178214 0.095025
vt 0.213843 0.118548
vt 0.246913 0.175828
vt 0.252029 0.299248
vt 0.213843 0.318341
vt 0.137470 0.327202
vt 0.066302 0.155388
vt 0.105836 0.086913
vt 0.137470 0.062640
vt 0.279984 0.233107
vt 0.282542 0.275724
vt 0.174309 0.047381
vt 0.213843 0.080362
vt 0.246913 0.137641
vt 0.279984 0.194921
vt 0.290216 0.327202
vt 0.253376 0.342462
vt 0.174309 0.342462
vt 0.081561 0.118548
vt 0.313054 0.252200
vt 0.321850 0.302928
vt 0.213843 0.042176
vt 0.249471 0.095025
vt 0.279984 0.156735
vt 0.318170 0.214014
vt 0.213843 0.347666
vt 0.346124 0.271294
vt 0.253376 0.047381
vt 0.285099 0.109687
vt 0.323286 0.175828
vt 0.361384 0.234454
vt 0.290216 0.062640
vt 0.320728 0.133211
vt 0.366588 0.194921
vt 0.321850 0.086913
vt 0.361383 0.155388
vt 0.346124 0.118548
vt 0.914202 0.032184
vt 0.926896 0.032944
vt 0.896652 0.188037
vt 0.863423 0.028325
vt 0.670252 0.187405
vt 0.649313 0.029454
vt 0.662138 0.029454
vt 0.713486 0.028516
vt 0.914554 0.244248
vt 0.879639 0.403562
vt 0.851035 0.248158
vt 0.863736 0.247536
vt 0.521980 0.141395
vt 0.555623 0.300712
vt 0.572775 0.144845
vt 0.585469 0.145549
vt 0.422546 0.409071
vt 0.422535 0.433458
vt 0.457550 0.409086
vt 0.457539 0.433474
vt 0.492553 0.409102
vt 0.492542 0.433490
vt 0.020433 0.408890
vt 0.053051 0.408905
vt 0.053041 0.433292
vt 0.020422 0.433278
vt 0.088055 0.408920
vt 0.088044 0.433307
vt 0.123058 0.408935
vt 0.123048 0.433323
vn 0.000000 0.028260 -0.999601
vn 0.000000 0.028260 -0.999601
vn 0.000000 0.028260 -0.999601
vn 0.000000 0.028260 -0.999601
vn 0.000000 0.028260 -0.999601
vn 0.991189 -0.132455 0.000000
vn 0.991189 -0.132455 0.000000
vn 0.991189 -0.132455 0.000000
vn 0.991189 -0.132455 0.000000
vn 0.991189 -0.132455 0.000000
vn -0.999601 0.028261 0.000000
vn -0.999601 0.028261 0.000000
vn -0.999601 0.028261 0.000000
vn -0.999601 0.028261 0.000000
vn -0.999601 0.028261 0.000000
vn 0.000000 -0.132454 0.991189
vn 0.000000 -0.132454 0.991189
vn 0.000000 -0.132454 0.991189
vn 0.000000 -0.132454 0.991189
vn 0.000000 -0.132454 0.991189
vn 0.000000 0.029330 -0.999570
vn 0.000000 0.029330 -0.999570
vn 0.000000 0.029330 -0.999570
vn 0.000000 0.029330 -0.999570
vn 0.000000 0.029330 -0.999570
vn 0.999570 0.029331 0.000000
vn 0.999570 0.029331 0.000000
vn 0.999570 0.029331 0.000000
vn 0.999570 0.029331 0.000000
vn 0.999570 0.029331 0.000000
vn -0.991328 -0.131415 0.000000
vn -0.991328 -0.131415 0.000000
vn -0.991328 -0.131415 0.000000
vn -0.991328 -0.131415 0.000000
vn -0.991328 -0.131415 0.000000
vn 0.000000 -0.131413 0.991328
vn 0.000000 -0.131413 0.991328
vn 0.000000 -0.131413 0.991328
vn 0.000000 -0.131413 0.991328
vn 0.000000 -0.131413 0.991328
vn 0.000000 -0.132676 -0.991159
vn 0.000000 -0.132676 -0.991159
vn 0.000000 -0.132676 -0.991159
vn 0.000000 -0.132676 -0.991159
vn 0.000000 -0.132676 -0.991159
vn 0.991159 -0.132677 0.000000
vn 0.991159 -0.132677 0.000000
vn 0.991159 -0.132677 0.000000
vn 0.991159 -0.132677 0.000000
vn 0.991159 -0.132677 0.000000
vn -0.999607 0.028035 0.000000
vn -0.999607 0.028035 0.000000
vn -0.999607 0.028035 0.000000
vn -0.999607 0.028035 0.000000
vn -0.999607 0.028035 0.000000
vn 0.000000 0.028034 0.999607
vn 0.000000 0.028034 0.999607
vn 0.000000 0.028034 0.999607
vn 0.000000 0.028034 0.999607
vn 0.000000 0.028034 0.999607
vn 0.000000 -0.134248 -0.990948
vn 0.000000 -0.134248 -0.990948
vn 0.000000 -0.134248 -0.990948
vn 0.000000 -0.134248 -0.990948
vn 0.000000 -0.134248 -0.990948
vn 0.999651 0.026422 0.000000
vn 0.999651 0.026422 0.000000
vn 0.999651 0.026422 0.000000
vn 0.999651 0.026422 0.000000
vn 0.999651 0.026422 0.000000
vn -0.990948 -0.134247 0.000000
vn -0.990948 -0.134247 0.000000
vn -0.990948 -0.134247 0.000000
vn -0.990948 -0.134247 0.000000
vn -0.990948 -0.134247 0.000000
vn 0.000000 0.026422 0.999651
vn 0.000000 0.026422 0.999651
vn 0.000000 0.026422 0.999651
vn 0.000000 0.026422 0.999651
vn 0.000000 0.026422 0.999651
vn 0.000000 1.000000 0.000000
vn 0.000000 1.000000 0.000000
vn 0.000000 1.000000 0.000000
vn 0.000000 1.000000 -0.000000
vn 0.000000 1.000000 0.000000
vn 0.000000 1.000000 -0.000000
vn 0.000000 1.000000 0.000000
vn 0.000000 1.000000 0.000000
vn 0.000000 1.000000 -0.000000
vn 0.000000 1.000000 0.000000
vn 0.000000 1.000000 -0.000000
vn 0.000000 1.000000 -0.000001
vn 0.000000 1.000000 -0.000000
vn 0.000000 1.000000 -0.000000
vn 0.000000 1.000000 -0.000000
vn 0.000000 1.000000 -0.000000
vn 0.000000 1.000000 0.000000
vn 0.000000 1.000000 -0.000000
vn 0.000000 1.000000 -0.000000
vn 0.000000 1.000000 -0.000000
vn 0.000000 1.000000 0.000000
vn 0.000000 1.000000 0.000000
vn 0.000000 1.000000 0.000000
vn 0.000000 1.000000 0.000000
vn 0.000000 1.000000 0.000000
vn 0.000000 1.000000 -0.000000
vn 0.000000 1.000000 -0.000000
vn 0.000000 1.000000 0.000000
vn 0.000000 1.000000 0.000000
vn 0.000000 1.000000 -0.000000
vn 0.000000 1.000000 0.000000
vn 0.000000 1.000000 -0.000000
vn 0.000000 1.000000 0.000000
vn 0.000000 1.000000 -0.000000
vn 0.000000 1.000000 0.000000
vn 0.000000 1.000000 -0.000000
vn 0.000000 1.000000 0.000000
vn 0.000000 1.000000 -0.000000
vn 0.000000 1.000000 -0.000000
vn 0.000000 1.000000 0.000000
vn 0.000000 1.000000 0.000000
vn 0.000000 1.000000 0.000000
vn 0.000000 1.000000 0.000000
vn 0.000000 1.000000 0.000000
vn 0.000000 1.000000 0.000000
vn 0.000000 1.000000 0.000000
vn 0.000000 1.000000 0.000000
vn 0.000000 1.000000 0.000000
vn 0.000000 1.000000 0.000000
vn 0.000000 1.000000 -0.000000
vn 0.000000 1.000000 -0.000000
vn 0.000000 1.000000 0.000000
vn 0.000000 1.000000 -0.000000
vn 0.000000 1.000000 0.000000
vn 0.000000 1.000000 0.000000
vn 0.000000 1.000000 -0.000001
vn 0.000000 1.000000 -0.000000
vn 0.000000 1.000000 -0.000000
vn 0.000000 1.000000 0.000000
vn 0.000000 1.000000 0.000000
vn 0.000000 1.000000 0.000000
vn -0.866025 0.000000 -0.500001
vn -0.965927 0.000000 -0.258817
vn -0.965927 0.000000 -0.258817
vn -0.866025 0.000000 -0.500001
vn -1.000000 0.000000 0.000000
vn -1.000000 0.000000 0.000000
vn -0.965926 0.000000 0.258817
vn -0.965926 0.000000 0.258817
vn -0.866024 0.000000 0.500002
vn -0.866024 0.000000 0.500002
vn -0.707107 0.000001 0.707106
vn -0.707106 0.000001 0.707107
vn -0.500000 0.000001 0.866025
vn -0.500000 0.000001 0.866025
vn -0.258819 0.000000 0.965926
vn -0.258819 0.000000 0.965926
vn 0.000000 0.000000 1.000000
vn 0.000000 0.000000 1.000000
vn 0.258819 0.000000 0.965926
vn 0.258819 0.000000 0.965926
vn 0.499999 -0.000003 0.866026
vn 0.499999 -0.000003 0.866026
vn 0.707107 -0.000002 0.707106
vn 0.707106 -0.000002 0.707107
vn 0.866026 0.000000 0.500000
vn 0.866026 0.000000 0.500000
vn 0.965926 0.000000 0.258820
vn 0.965926 0.000000 0.258820
vn 1.000000 0.000000 0.000003
vn 1.000000 0.000000 0.000003
vn 0.965926 0.000000 -0.258819
vn 0.965926 0.000000 -0.258819
vn 0.866025 0.000000 -0.500001
vn 0.866025 0.000000 -0.500001
vn 0.707108 0.000000 -0.707106
vn 0.707108 0.000000 -0.707106
vn 0.499997 0.000000 -0.866027
vn 0.499997 0.000000 -0.866027
vn 0.258816 0.000000 -0.965927
vn 0.258816 0.000000 -0.965927
vn 0.000000 0.000000 -1.000000
vn 0.000000 0.000000 -1.000000
vn -0.258819 0.000000 -0.965926
vn -0.258819 0.000000 -0.965926
vn -0.500001 0.000000 -0.866025
vn -0.500001 0.000000 -0.866025
vn -0.707107 0.000000 -0.707107
vn -0.707107 0.000000 -0.707107
s off
g pPlane7
usemtl lambert7SG
f 33/6/1 1/10/2 2/138/3 4/139/4 34/140/5
f 34/1/6 4/2/7 5/3/8 8/4/9 36/5/10
f 33/6/11 35/7/12 7/8/13 3/9/14 1/10/15
f 35/7/16 36/5/17 8/4/18 6/141/19 7/8/20
f 37/142/21 9/143/22 10/144/23 12/12/24 38/11/25
f 38/11/26 12/12/27 13/13/28 16/14/29 40/15/30
f 37/16/31 39/17/32 15/18/33 11/19/34 9/20/35
f 39/17/36 40/15/37 16/14/38 14/145/39 15/18/40
f 41/26/41 17/30/42 18/146/43 20/22/44 42/21/45
f 42/21/46 20/22/47 21/23/48 24/24/49 44/25/50
f 41/26/51 43/27/52 23/28/53 19/29/54 17/30/55
f 43/27/56 44/147/57 24/148/58 22/149/59 23/28/60
f 45/36/61 25/40/62 26/150/63 28/32/64 46/31/65
f 46/31/66 28/32/67 29/33/68 32/34/69 48/35/70
f 45/36/71 47/37/72 31/38/73 27/39/74 25/40/75
f 47/151/76 48/35/77 32/34/78 30/152/79 31/153/80
s 1
f 73/77/81 74/78/82 75/79/83 76/80/84
f 75/79/83 77/85/85 78/86/86 76/80/84
f 78/86/86 79/96/87 80/87/88 76/80/84
f 80/87/88 81/88/89 73/77/81 76/80/84
f 80/87/88 79/96/87 82/107/90 83/98/91
f 82/107/90 84/119/92 85/108/93 83/98/91
f 85/108/93 86/109/94 87/97/95 83/98/91
f 87/97/95 81/88/89 80/87/88 83/98/91
f 87/97/95 86/109/94 88/112/96 89/101/97
f 88/112/96 90/122/98 91/113/99 89/101/97
f 91/113/99 92/102/100 93/90/101 89/101/97
f 93/90/101 81/88/89 87/97/95 89/101/97
f 93/90/101 92/102/100 94/91/102 95/82/103
f 94/91/102 96/92/104 97/81/105 95/82/103
f 97/81/105 74/78/82 73/77/81 95/82/103
f 73/77/81 81/88/89 93/90/101 95/82/103
f 98/114/106 92/102/100 91/113/99 99/123/107
f 91/113/99 90/122/98 100/128/108 99/123/107
f 100/128/108 101/132/109 102/129/110 99/123/107
f 102/129/110 103/124/111 98/114/106 99/123/107
f 102/129/110 101/132/109 104/135/112 105/133/113
f 104/135/112 106/137/114 107/136/115 105/133/113
f 107/136/115 108/134/116 109/130/117 105/133/113
f 109/130/117 103/124/111 102/129/110 105/133/113
f 109/130/117 108/134/116 110/131/118 111/125/119
f 110/131/118 112/127/120 113/120/121 111/125/119
f 113/120/121 114/110/122 115/115/123 111/125/119
f 115/115/123 103/124/111 109/130/117 111/125/119
f 115/115/123 114/110/122 116/99/124 117/103/125
f 116/99/124 96/92/104 94/91/102 117/103/125
f 94/91/102 92/102/100 98/114/106 117/103/125
f 98/114/106 103/124/111 115/115/123 117/103/125
f 118/100/126 114/110/122 113/120/121 119/111/127
f 113/120/121 112/127/120 120/121/128 119/111/127
f 120/121/128 121/116/129 122/104/130 119/111/127
f 122/104/130 123/93/131 118/100/126 119/111/127
f 122/104/130 121/116/129 124/117/132 125/105/133
f 124/117/132 126/126/134 127/118/135 125/105/133
f 127/118/135 128/106/136 129/94/137 125/105/133
f 129/94/137 123/93/131 122/104/130 125/105/133
f 129/94/137 128/106/136 130/95/138 131/84/139
f 130/95/138 77/85/85 75/79/83 131/84/139
f 75/79/83 74/78/82 132/83/140 131/84/139
f 132/83/140 123/93/131 129/94/137 131/84/139
f 132/83/140 74/78/82 97/81/105 133/89/141
f 97/81/105 96/92/104 116/99/124 133/89/141
f 116/99/124 114/110/122 118/100/126 133/89/141
f 118/100/126 123/93/131 132/83/140 133/89/141
s 2
f 54/41/142 61/42/143 78/43/144 77/44/145
f 61/42/143 55/45/146 79/46/147 78/43/144
f 55/45/146 62/49/148 82/50/149 79/46/147
f 62/49/148 49/53/150 84/54/151 82/50/149
f 49/53/150 63/55/152 85/56/153 84/54/151
f 63/55/152 56/57/154 86/58/155 85/56/153
f 56/57/154 64/154/156 88/155/157 86/58/155
f 64/154/156 52/156/158 90/157/159 88/155/157
f 52/156/158 65/158/160 100/159/161 90/157/159
f 65/158/160 57/69/162 101/70/163 100/159/161
f 57/69/162 66/65/164 104/66/165 101/70/163
f 66/65/164 50/59/166 106/62/167 104/66/165
f 50/59/166 67/60/168 107/61/169 106/62/167
f 67/60/168 58/63/170 108/64/171 107/61/169
f 58/63/170 68/67/172 110/68/173 108/64/171
f 68/67/172 53/71/174 112/72/175 110/68/173
f 53/71/174 69/73/176 120/74/177 112/72/175
f 69/73/176 59/75/178 121/76/179 120/74/177
f 59/160/178 70/161/180 124/162/181 121/163/179
f 70/161/180 51/164/182 126/165/183 124/162/181
f 51/164/182 71/166/184 127/167/185 126/165/183
f 71/166/184 60/51/186 128/52/187 127/167/185
f 60/51/186 72/47/188 130/48/189 128/52/187
f 72/47/188 54/41/142 77/44/145 130/48/189
