# This file uses centimeters as units for non-parametric coordinates.

mtllib Table.mtl
g default
v -6.061341 1.757486 15.474420
v -7.896375 1.757486 18.197210
v -6.061341 1.825645 15.474420
v -7.896375 1.825645 18.197210
v -4.244834 1.825645 16.698658
v -6.079869 1.825645 19.421450
v -4.244834 1.757486 16.698658
v -6.079869 1.757486 19.421450
v -6.153091 1.757486 15.610560
v -4.336586 1.757486 16.834801
v -7.804623 1.757486 18.061071
v -5.988117 1.757486 19.285311
v -7.752429 0.000000 18.023396
v -7.427048 0.000000 18.242687
v -7.509223 0.000000 18.364616
v -7.834604 0.000000 18.145325
v -6.322108 1.761043 18.874241
v -5.996727 1.761043 19.093533
v -6.078902 1.761043 19.215464
v -6.404284 1.761043 18.996170
v -6.265244 0.000000 19.025688
v -6.347418 0.000000 19.147617
v -5.939861 0.000000 19.244980
v -6.022037 0.000000 19.366909
v -7.705810 1.761043 18.119003
v -7.623634 1.761043 17.997074
v -7.298253 1.761043 18.216366
v -7.380428 1.761043 18.338295
v -5.865721 0.000000 15.926017
v -5.947895 0.000000 16.047947
v -6.273277 0.000000 15.828655
v -6.191103 0.000000 15.706726
v -4.435400 1.761043 16.776865
v -4.517575 1.761043 16.898796
v -4.842957 1.761043 16.679504
v -4.760781 1.761043 16.557571
v -4.786091 0.000000 16.830948
v -4.460710 0.000000 17.050240
v -4.703916 0.000000 16.709019
v -4.378533 0.000000 16.928310
v -5.819100 1.761043 16.021626
v -6.144484 1.761043 15.802336
v -6.062308 1.761043 15.680406
v -5.736926 1.761043 15.899697
vt 0.025278 0.259307
vt 0.025278 0.245939
vt 0.031971 0.245939
vt 0.031971 0.513295
vt 0.025278 0.513295
vt 0.025278 0.499927
vt 0.109490 0.158184
vt 0.324583 0.158432
vt 0.324210 0.480839
vt 0.109117 0.480591
vt 0.407730 0.125728
vt 0.407730 0.393084
vt 0.401038 0.393084
vt 0.401038 0.379717
vt 0.401038 0.139096
vt 0.401038 0.125728
vt 0.031971 0.125728
vt 0.025278 0.125728
vt 0.031971 0.393084
vt 0.025278 0.393084
vt 0.124438 0.861091
vt 0.105055 0.870469
vt 0.104948 0.678424
vt 0.124331 0.669046
vt 0.094278 0.875684
vt 0.094170 0.683638
vt 0.074884 0.866327
vt 0.074777 0.674282
vt 0.064101 0.861125
vt 0.063994 0.669079
vt 0.308369 0.868767
vt 0.298054 0.874845
vt 0.297288 0.674590
vt 0.307603 0.668512
vt 0.279420 0.864056
vt 0.278653 0.663801
vt 0.269058 0.858057
vt 0.268292 0.657802
vt 0.326921 0.857835
vt 0.326154 0.657580
vt 0.374816 0.869750
vt 0.364058 0.875005
vt 0.363232 0.682961
vt 0.373989 0.677706
vt 0.424395 0.874745
vt 0.404966 0.865461
vt 0.404140 0.673417
vt 0.423568 0.682701
vt 0.394164 0.860299
vt 0.393337 0.668255
vt 0.222973 0.856787
vt 0.204421 0.867717
vt 0.203663 0.667462
vt 0.222215 0.656531
vt 0.193570 0.873795
vt 0.193884 0.673539
vt 0.175471 0.863005
vt 0.174714 0.662750
vt 0.165110 0.857006
vt 0.164353 0.656750
vn -0.829251 -0.000017 -0.558876
vn -0.829251 -0.000017 -0.558876
vn -0.829251 -0.000017 -0.558876
vn -0.829251 -0.000017 -0.558876
vn -0.829251 -0.000017 -0.558876
vn -0.829251 -0.000017 -0.558876
vn 0.000000 1.000000 0.000000
vn 0.000000 1.000000 0.000000
vn 0.000000 1.000000 0.000000
vn 0.000000 1.000000 0.000000
vn 0.829251 0.000014 0.558877
vn 0.829251 0.000014 0.558877
vn 0.829251 0.000014 0.558877
vn 0.829251 0.000014 0.558877
vn 0.829251 0.000014 0.558877
vn 0.829251 0.000014 0.558877
vn -0.558876 0.000000 0.829251
vn -0.558876 0.000000 0.829251
vn -0.558876 0.000000 0.829251
vn -0.558876 0.000000 0.829251
vn 0.558875 0.000000 -0.829252
vn 0.558875 0.000000 -0.829252
vn 0.558875 0.000000 -0.829252
vn 0.558875 0.000000 -0.829252
vn 0.558084 -0.053194 -0.828078
vn 0.558084 -0.053194 -0.828078
vn 0.558084 -0.053194 -0.828078
vn 0.558084 -0.053194 -0.828078
vn 0.603145 -0.686277 0.406496
vn 0.603145 -0.686277 0.406496
vn 0.603145 -0.686277 0.406496
vn 0.603145 -0.686277 0.406497
vn -0.558084 0.053194 0.828078
vn -0.558084 0.053194 0.828078
vn -0.558084 0.053194 0.828078
vn -0.558084 0.053194 0.828078
vn -0.603146 0.686276 -0.406497
vn -0.603146 0.686276 -0.406497
vn -0.603146 0.686276 -0.406497
vn -0.603146 0.686276 -0.406497
vn -0.596394 -0.694806 -0.401944
vn -0.596394 -0.694806 -0.401944
vn -0.596394 -0.694806 -0.401944
vn -0.596394 -0.694806 -0.401944
vn 0.558083 -0.053193 -0.828078
vn 0.558083 -0.053193 -0.828078
vn 0.558083 -0.053193 -0.828078
vn 0.558083 -0.053193 -0.828078
vn 0.596392 0.694807 0.401945
vn 0.596392 0.694807 0.401945
vn 0.596392 0.694807 0.401945
vn 0.596392 0.694807 0.401945
vn -0.558084 0.053192 0.828078
vn -0.558084 0.053192 0.828078
vn -0.558084 0.053192 0.828078
vn -0.558084 0.053192 0.828078
vn 0.603152 -0.686274 0.406492
vn 0.603152 -0.686274 0.406492
vn 0.603152 -0.686274 0.406492
vn 0.603152 -0.686274 0.406492
vn -0.558085 0.053190 0.828077
vn -0.558085 0.053190 0.828077
vn -0.558085 0.053190 0.828077
vn -0.558085 0.053190 0.828077
vn -0.603151 0.686276 -0.406491
vn -0.603151 0.686276 -0.406491
vn -0.603151 0.686276 -0.406491
vn -0.603151 0.686276 -0.406491
vn 0.558085 -0.053193 -0.828077
vn 0.558085 -0.053193 -0.828077
vn 0.558085 -0.053193 -0.828077
vn 0.558085 -0.053193 -0.828077
vn -0.558081 0.053195 0.828080
vn -0.558081 0.053195 0.828080
vn -0.558081 0.053195 0.828080
vn -0.558081 0.053195 0.828080
vn -0.596398 -0.694803 -0.401942
vn -0.596398 -0.694803 -0.401942
vn -0.596398 -0.694803 -0.401942
vn -0.596398 -0.694803 -0.401942
vn 0.558085 -0.053193 -0.828077
vn 0.558085 -0.053193 -0.828077
vn 0.558085 -0.053193 -0.828077
vn 0.558085 -0.053193 -0.828077
vn 0.596394 0.694805 0.401946
vn 0.596394 0.694805 0.401946
vn 0.596394 0.694805 0.401946
vn 0.596394 0.694805 0.401946
s off
g polySurface14
usemtl lambert10SG
f 11/1/1 2/2/2 4/3/3 3/4/4 1/5/5 9/6/6
f 4/7/7 6/8/8 5/9/9 3/10/10
f 5/11/11 6/12/12 8/13/13 12/14/14 10/15/15 7/16/16
f 6/17/17 4/3/18 2/2/19 8/18/20
f 1/5/21 3/4/22 5/19/23 7/20/24
f 17/21/25 18/22/26 14/23/27 13/24/28
f 18/22/29 19/25/30 15/26/31 14/23/32
f 19/25/33 20/27/34 16/28/35 15/26/36
f 20/27/37 17/29/38 13/30/39 16/28/40
f 25/31/41 26/32/42 21/33/43 22/34/44
f 26/32/45 27/35/46 23/36/47 21/33/48
f 27/35/49 28/37/50 24/38/51 23/36/52
f 28/39/53 25/31/54 22/34/55 24/40/56
f 33/41/57 34/42/58 30/43/59 29/44/60
f 34/45/61 35/46/62 31/47/63 30/48/64
f 35/46/65 36/49/66 32/50/67 31/47/68
f 36/49/69 33/41/70 29/44/71 32/50/72
f 41/51/73 42/52/74 37/53/75 38/54/76
f 42/52/77 43/55/78 39/56/79 37/53/80
f 43/55/81 44/57/82 40/58/83 39/56/84
f 44/57/85 41/59/86 38/60/87 40/58/88
